<svg id="Capa_1" enable-background="new 0 0 512 512" height="512" viewBox="0 0 512 512" width="512" xmlns="http://www.w3.org/2000/svg"><g><path d="m262.708 287.583-49.361-24.681 27.245-114.429c.956-4.015.216-8.246-2.047-11.698-1.627-2.481-40.725-60.775-117.545-60.775-67.851 0-121 59.299-121 135 0 42.829 18.019 87.349 52.108 128.748 37.439 45.467 93.663 87.399 167.109 124.631 4.125 2.092 9.061 2.19 13.335.114 4.219-2.048 7.236-5.952 8.156-10.551l30-150c1.327-6.633-1.949-13.333-8-16.359zm-47.493 140.857c-61.116-32.936-108.141-69.136-139.948-107.763-29.614-35.963-45.267-73.889-45.267-109.677 0-58.878 39.972-105 91-105 36.649 0 68.132 17.497 88.766 42.422l-28.357 119.104c-1.614 6.778 1.651 13.774 7.884 16.891l49.752 24.876z"/><path d="m391 46c-76.82 0-115.918 58.294-117.545 60.776-.952 1.453-1.645 3.06-2.047 4.75l-30 126c-1.614 6.778 1.651 13.774 7.884 16.891l49.752 24.876-27.753 138.766c-1.126 5.632 1.063 11.414 5.637 14.888 4.567 3.468 10.724 4.034 15.854 1.433 73.446-37.232 129.67-79.164 167.109-124.631 34.09-41.4 52.109-85.92 52.109-128.749 0-75.701-53.149-135-121-135zm45.733 244.678c-30.026 36.463-73.612 70.764-129.812 102.198l23.787-118.934c1.326-6.633-1.95-13.333-8.001-16.358l-49.361-24.681 26.567-111.582c6.647-8.829 37.376-45.321 91.087-45.321 51.028 0 91 46.122 91 105 0 35.788-15.653 73.714-45.267 109.678z"/></g></svg>